{
    "asset" : {
        "generator" : "Khronos glTF Blender I/O v1.3.48",
        "version" : "2.0"
    },
    "scene" : 0,
    "scenes" : [
        {
            "name" : "Scene",
            "nodes" : [
                0,
                1,
                2,
                3,
                4,
                5,
                6,
                7,
                8,
                9,
                10
            ]
        }
    ],
    "nodes" : [
        {
            "name" : "Light",
            "rotation" : [
                0.16907575726509094,
                0.7558803558349609,
                -0.27217137813568115,
                0.570947527885437
            ],
            "translation" : [
                4.076245307922363,
                5.903861999511719,
                -1.0054539442062378
            ]
        },
        {
            "name" : "Camera",
            "rotation" : [
                0.483536034822464,
                0.33687159419059753,
                -0.20870360732078552,
                0.7804827094078064
            ],
            "translation" : [
                7.358891487121582,
                4.958309173583984,
                6.925790786743164
            ]
        },
        {
            "mesh" : 0,
            "name" : "Curve"
        },
        {
            "mesh" : 1,
            "name" : "Curve.001"
        },
        {
            "mesh" : 2,
            "name" : "Curve.002"
        },
        {
            "mesh" : 3,
            "name" : "Curve.003"
        },
        {
            "mesh" : 4,
            "name" : "Curve.004"
        },
        {
            "mesh" : 5,
            "name" : "Curve.005"
        },
        {
            "mesh" : 6,
            "name" : "Curve.006"
        },
        {
            "mesh" : 7,
            "name" : "Curve.007"
        },
        {
            "mesh" : 8,
            "name" : "Curve.008"
        }
    ],
    "materials" : [
        {
            "doubleSided" : true,
            "name" : "SVGMat.010",
            "pbrMetallicRoughness" : {}
        },
        {
            "doubleSided" : true,
            "name" : "SVGMat.012",
            "pbrMetallicRoughness" : {}
        },
        {
            "doubleSided" : true,
            "name" : "SVGMat.013",
            "pbrMetallicRoughness" : {}
        },
        {
            "doubleSided" : true,
            "name" : "SVGMat.014",
            "pbrMetallicRoughness" : {}
        },
        {
            "doubleSided" : true,
            "name" : "SVGMat.015",
            "pbrMetallicRoughness" : {}
        },
        {
            "doubleSided" : true,
            "name" : "SVGMat.016",
            "pbrMetallicRoughness" : {}
        },
        {
            "doubleSided" : true,
            "name" : "SVGMat.017",
            "pbrMetallicRoughness" : {}
        },
        {
            "doubleSided" : true,
            "name" : "SVGMat.018",
            "pbrMetallicRoughness" : {}
        },
        {
            "doubleSided" : true,
            "name" : "SVGMat.019",
            "pbrMetallicRoughness" : {}
        }
    ],
    "meshes" : [
        {
            "name" : "Curve.008",
            "primitives" : [
                {
                    "attributes" : {
                        "POSITION" : 0,
                        "NORMAL" : 1,
                        "TEXCOORD_0" : 2
                    },
                    "indices" : 3,
                    "material" : 0
                }
            ]
        },
        {
            "name" : "Curve.009",
            "primitives" : [
                {
                    "attributes" : {
                        "POSITION" : 4,
                        "NORMAL" : 5,
                        "TEXCOORD_0" : 6
                    },
                    "indices" : 7,
                    "material" : 1
                }
            ]
        },
        {
            "name" : "Curve.010",
            "primitives" : [
                {
                    "attributes" : {
                        "POSITION" : 8,
                        "NORMAL" : 9,
                        "TEXCOORD_0" : 10
                    },
                    "indices" : 11,
                    "material" : 2
                }
            ]
        },
        {
            "name" : "Curve.011",
            "primitives" : [
                {
                    "attributes" : {
                        "POSITION" : 12,
                        "NORMAL" : 13,
                        "TEXCOORD_0" : 14
                    },
                    "indices" : 15,
                    "material" : 3
                }
            ]
        },
        {
            "name" : "Curve.012",
            "primitives" : [
                {
                    "attributes" : {
                        "POSITION" : 16,
                        "NORMAL" : 17,
                        "TEXCOORD_0" : 18
                    },
                    "indices" : 19,
                    "material" : 4
                }
            ]
        },
        {
            "name" : "Curve.013",
            "primitives" : [
                {
                    "attributes" : {
                        "POSITION" : 20,
                        "NORMAL" : 21,
                        "TEXCOORD_0" : 22
                    },
                    "indices" : 23,
                    "material" : 5
                }
            ]
        },
        {
            "name" : "Curve.014",
            "primitives" : [
                {
                    "attributes" : {
                        "POSITION" : 24,
                        "NORMAL" : 25,
                        "TEXCOORD_0" : 26
                    },
                    "indices" : 27,
                    "material" : 6
                }
            ]
        },
        {
            "name" : "Curve.015",
            "primitives" : [
                {
                    "attributes" : {
                        "POSITION" : 28,
                        "NORMAL" : 29,
                        "TEXCOORD_0" : 30
                    },
                    "indices" : 31,
                    "material" : 7
                }
            ]
        },
        {
            "name" : "Curve.016",
            "primitives" : [
                {
                    "attributes" : {
                        "POSITION" : 32,
                        "NORMAL" : 33,
                        "TEXCOORD_0" : 34
                    },
                    "indices" : 35,
                    "material" : 8
                }
            ]
        }
    ],
    "accessors" : [
        {
            "bufferView" : 0,
            "componentType" : 5126,
            "count" : 1302,
            "max" : [
                0.061685238033533096,
                0,
                -0.012834482826292515
            ],
            "min" : [
                0.008918406441807747,
                0,
                -0.09477332979440689
            ],
            "type" : "VEC3"
        },
        {
            "bufferView" : 1,
            "componentType" : 5126,
            "count" : 1302,
            "type" : "VEC3"
        },
        {
            "bufferView" : 2,
            "componentType" : 5126,
            "count" : 1302,
            "type" : "VEC2"
        },
        {
            "bufferView" : 3,
            "componentType" : 5123,
            "count" : 2910,
            "type" : "SCALAR"
        },
        {
            "bufferView" : 4,
            "componentType" : 5126,
            "count" : 87,
            "max" : [
                0.09139671176671982,
                0,
                -0.10674430429935455
            ],
            "min" : [
                0.07561452686786652,
                0,
                -0.1146337240934372
            ],
            "type" : "VEC3"
        },
        {
            "bufferView" : 5,
            "componentType" : 5126,
            "count" : 87,
            "type" : "VEC3"
        },
        {
            "bufferView" : 6,
            "componentType" : 5126,
            "count" : 87,
            "type" : "VEC2"
        },
        {
            "bufferView" : 7,
            "componentType" : 5123,
            "count" : 198,
            "type" : "SCALAR"
        },
        {
            "bufferView" : 8,
            "componentType" : 5126,
            "count" : 787,
            "max" : [
                0.09934425354003906,
                0.009999999776482582,
                -0.10674430429935455
            ],
            "min" : [
                0.06766416132450104,
                -0.009999999776482582,
                -0.12258241325616837
            ],
            "type" : "VEC3"
        },
        {
            "bufferView" : 9,
            "componentType" : 5126,
            "count" : 787,
            "type" : "VEC3"
        },
        {
            "bufferView" : 10,
            "componentType" : 5126,
            "count" : 787,
            "type" : "VEC2"
        },
        {
            "bufferView" : 11,
            "componentType" : 5123,
            "count" : 1548,
            "type" : "SCALAR"
        },
        {
            "bufferView" : 12,
            "componentType" : 5126,
            "count" : 732,
            "max" : [
                0.10729461908340454,
                0.009999999776482582,
                -0.10674430429935455
            ],
            "min" : [
                0.05971661955118179,
                -0.009999999776482582,
                -0.1305282711982727
            ],
            "type" : "VEC3"
        },
        {
            "bufferView" : 13,
            "componentType" : 5126,
            "count" : 732,
            "type" : "VEC3"
        },
        {
            "bufferView" : 14,
            "componentType" : 5126,
            "count" : 732,
            "type" : "VEC2"
        },
        {
            "bufferView" : 15,
            "componentType" : 5123,
            "count" : 1464,
            "type" : "SCALAR"
        },
        {
            "bufferView" : 16,
            "componentType" : 5126,
            "count" : 779,
            "max" : [
                0.11524215340614319,
                0.009999999776482582,
                -0.10674430429935455
            ],
            "min" : [
                0.05176625773310661,
                -0.009999999776482582,
                -0.13847413659095764
            ],
            "type" : "VEC3"
        },
        {
            "bufferView" : 17,
            "componentType" : 5126,
            "count" : 779,
            "type" : "VEC3"
        },
        {
            "bufferView" : 18,
            "componentType" : 5126,
            "count" : 779,
            "type" : "VEC2"
        },
        {
            "bufferView" : 19,
            "componentType" : 5123,
            "count" : 1476,
            "type" : "SCALAR"
        },
        {
            "bufferView" : 20,
            "componentType" : 5126,
            "count" : 798,
            "max" : [
                0.12319251894950867,
                0.009999999776482582,
                -0.10674430429935455
            ],
            "min" : [
                0.04381871595978737,
                -0.009999999776482582,
                -0.14642281830310822
            ],
            "type" : "VEC3"
        },
        {
            "bufferView" : 21,
            "componentType" : 5126,
            "count" : 798,
            "type" : "VEC3"
        },
        {
            "bufferView" : 22,
            "componentType" : 5126,
            "count" : 798,
            "type" : "VEC2"
        },
        {
            "bufferView" : 23,
            "componentType" : 5123,
            "count" : 1488,
            "type" : "SCALAR"
        },
        {
            "bufferView" : 24,
            "componentType" : 5126,
            "count" : 818,
            "max" : [
                0.13104692101478577,
                0.009999999776482582,
                -0.10674430429935455
            ],
            "min" : [
                0.035961490124464035,
                -0.009999999776482582,
                -0.1542755663394928
            ],
            "type" : "VEC3"
        },
        {
            "bufferView" : 25,
            "componentType" : 5126,
            "count" : 818,
            "type" : "VEC3"
        },
        {
            "bufferView" : 26,
            "componentType" : 5126,
            "count" : 818,
            "type" : "VEC2"
        },
        {
            "bufferView" : 27,
            "componentType" : 5123,
            "count" : 1500,
            "type" : "SCALAR"
        },
        {
            "bufferView" : 28,
            "componentType" : 5126,
            "count" : 805,
            "max" : [
                0.13899728655815125,
                0.009999999776482582,
                -0.10674430429935455
            ],
            "min" : [
                0.028012821450829506,
                -0.009999999776482582,
                -0.16222424805164337
            ],
            "type" : "VEC3"
        },
        {
            "bufferView" : 29,
            "componentType" : 5126,
            "count" : 805,
            "type" : "VEC3"
        },
        {
            "bufferView" : 30,
            "componentType" : 5126,
            "count" : 805,
            "type" : "VEC2"
        },
        {
            "bufferView" : 31,
            "componentType" : 5123,
            "count" : 1524,
            "type" : "SCALAR"
        },
        {
            "bufferView" : 32,
            "componentType" : 5126,
            "count" : 833,
            "max" : [
                0.1469448208808899,
                0.009999999776482582,
                -0.10674430429935455
            ],
            "min" : [
                0.020063871517777443,
                -0.009999999776482582,
                -0.17017292976379395
            ],
            "type" : "VEC3"
        },
        {
            "bufferView" : 33,
            "componentType" : 5126,
            "count" : 833,
            "type" : "VEC3"
        },
        {
            "bufferView" : 34,
            "componentType" : 5126,
            "count" : 833,
            "type" : "VEC2"
        },
        {
            "bufferView" : 35,
            "componentType" : 5123,
            "count" : 1560,
            "type" : "SCALAR"
        }
    ],
    "bufferViews" : [
        {
            "buffer" : 0,
            "byteLength" : 15624,
            "byteOffset" : 0
        },
        {
            "buffer" : 0,
            "byteLength" : 15624,
            "byteOffset" : 15624
        },
        {
            "buffer" : 0,
            "byteLength" : 10416,
            "byteOffset" : 31248
        },
        {
            "buffer" : 0,
            "byteLength" : 5820,
            "byteOffset" : 41664
        },
        {
            "buffer" : 0,
            "byteLength" : 1044,
            "byteOffset" : 47484
        },
        {
            "buffer" : 0,
            "byteLength" : 1044,
            "byteOffset" : 48528
        },
        {
            "buffer" : 0,
            "byteLength" : 696,
            "byteOffset" : 49572
        },
        {
            "buffer" : 0,
            "byteLength" : 396,
            "byteOffset" : 50268
        },
        {
            "buffer" : 0,
            "byteLength" : 9444,
            "byteOffset" : 50664
        },
        {
            "buffer" : 0,
            "byteLength" : 9444,
            "byteOffset" : 60108
        },
        {
            "buffer" : 0,
            "byteLength" : 6296,
            "byteOffset" : 69552
        },
        {
            "buffer" : 0,
            "byteLength" : 3096,
            "byteOffset" : 75848
        },
        {
            "buffer" : 0,
            "byteLength" : 8784,
            "byteOffset" : 78944
        },
        {
            "buffer" : 0,
            "byteLength" : 8784,
            "byteOffset" : 87728
        },
        {
            "buffer" : 0,
            "byteLength" : 5856,
            "byteOffset" : 96512
        },
        {
            "buffer" : 0,
            "byteLength" : 2928,
            "byteOffset" : 102368
        },
        {
            "buffer" : 0,
            "byteLength" : 9348,
            "byteOffset" : 105296
        },
        {
            "buffer" : 0,
            "byteLength" : 9348,
            "byteOffset" : 114644
        },
        {
            "buffer" : 0,
            "byteLength" : 6232,
            "byteOffset" : 123992
        },
        {
            "buffer" : 0,
            "byteLength" : 2952,
            "byteOffset" : 130224
        },
        {
            "buffer" : 0,
            "byteLength" : 9576,
            "byteOffset" : 133176
        },
        {
            "buffer" : 0,
            "byteLength" : 9576,
            "byteOffset" : 142752
        },
        {
            "buffer" : 0,
            "byteLength" : 6384,
            "byteOffset" : 152328
        },
        {
            "buffer" : 0,
            "byteLength" : 2976,
            "byteOffset" : 158712
        },
        {
            "buffer" : 0,
            "byteLength" : 9816,
            "byteOffset" : 161688
        },
        {
            "buffer" : 0,
            "byteLength" : 9816,
            "byteOffset" : 171504
        },
        {
            "buffer" : 0,
            "byteLength" : 6544,
            "byteOffset" : 181320
        },
        {
            "buffer" : 0,
            "byteLength" : 3000,
            "byteOffset" : 187864
        },
        {
            "buffer" : 0,
            "byteLength" : 9660,
            "byteOffset" : 190864
        },
        {
            "buffer" : 0,
            "byteLength" : 9660,
            "byteOffset" : 200524
        },
        {
            "buffer" : 0,
            "byteLength" : 6440,
            "byteOffset" : 210184
        },
        {
            "buffer" : 0,
            "byteLength" : 3048,
            "byteOffset" : 216624
        },
        {
            "buffer" : 0,
            "byteLength" : 9996,
            "byteOffset" : 219672
        },
        {
            "buffer" : 0,
            "byteLength" : 9996,
            "byteOffset" : 229668
        },
        {
            "buffer" : 0,
            "byteLength" : 6664,
            "byteOffset" : 239664
        },
        {
            "buffer" : 0,
            "byteLength" : 3120,
            "byteOffset" : 246328
        }
    ],
    "buffers" : [
        {
            "byteLength" : 249448,
            "uri" : "data:application/octet-stream;base64,"
        }
    ]
}
