<?xml version="1.0" standalone="no"?>
<!DOCTYPE svg PUBLIC "-//W3C//DTD SVG 20010904//EN"
 "http://www.w3.org/TR/2001/REC-SVG-20010904/DTD/svg10.dtd">
<svg version="1.0" xmlns="http://www.w3.org/2000/svg"
 width="128.000000pt" height="128.000000pt" viewBox="0 0 128.000000 128.000000"
 preserveAspectRatio="xMidYMid meet">

<g transform="translate(0.000000,128.000000) scale(0.100000,-0.100000)"
fill="#000000" stroke="none">
<path d="M80 1240 l0 -40 160 0 160 0 0 40 0 40 -160 0 -160 0 0 -40z"/>
<path d="M642 1238 c3 -42 4 -43 38 -43 34 0 35 1 38 43 l3 42 -41 0 -41 0 3
-42z"/>
<path d="M880 1240 l0 -40 40 0 40 0 0 -45 c0 -44 1 -45 33 -45 42 0 57 15 57
57 l0 34 73 -3 72 -3 3 -37 c3 -37 4 -38 43 -38 39 0 39 0 39 39 0 39 -1 40
-37 43 -36 3 -38 5 -41 41 l-3 37 -160 0 -159 0 0 -40z"/>
<path d="M78 1124 c-5 -4 -8 -25 -8 -46 l0 -38 108 0 c59 0 131 -3 160 -6 51
-7 52 -7 52 -40 l0 -34 -75 0 -75 0 0 -40 0 -39 78 -3 77 -3 0 -75 0 -75 -77
-3 -78 -3 0 -79 0 -80 -80 0 -80 0 0 -40 0 -40 80 0 80 0 0 -39 c0 -39 1 -40
38 -43 35 -3 37 -5 37 -38 l0 -35 -112 -3 -112 -3 -3 43 c-3 43 -3 43 -46 46
l-42 3 0 -50 0 -51 40 0 c39 0 40 -1 40 -35 0 -34 1 -35 40 -35 40 0 40 0 40
-39 0 -39 1 -40 38 -43 35 -3 37 -5 37 -38 l0 -35 -117 -3 -118 -3 0 -39 0
-40 200 0 200 0 0 40 0 40 119 0 120 0 3 38 3 37 157 3 157 3 3 37 3 37 118 3
117 3 0 34 c0 34 1 35 40 35 l40 0 0 50 0 50 -40 0 -40 0 0 -45 0 -45 -200 0
-200 0 0 -40 0 -40 -80 0 -80 0 0 40 0 39 -117 3 -118 3 -3 78 -3 77 81 0 80
0 0 -40 0 -40 120 0 120 0 0 40 c0 39 -1 40 -35 40 -33 0 -35 2 -35 34 0 42
-19 58 -62 54 -31 -3 -33 -5 -36 -46 -3 -42 -4 -43 -35 -40 -29 3 -32 6 -35
40 -3 35 -5 37 -40 40 -35 3 -37 5 -37 38 l0 35 318 3 317 2 0 40 0 40 -162 2
c-90 1 -234 0 -320 -2 l-158 -3 0 42 0 41 79 0 80 0 3 38 c3 34 6 37 35 40 31
3 32 2 35 -40 l3 -43 45 0 45 0 -3 83 -4 82 201 0 201 0 0 -40 0 -40 -120 0
-120 0 0 -40 0 -40 120 0 120 0 0 -45 0 -45 40 0 40 0 0 50 0 50 -35 0 c-32 0
-35 2 -35 30 0 28 3 30 35 30 l35 0 0 50 0 50 -40 0 c-39 0 -40 1 -40 35 l0
35 -199 0 -200 0 -3 -37 -3 -38 -152 -3 -153 -3 0 41 0 40 75 0 75 0 0 40 0
40 -227 0 c-126 0 -250 3 -278 6 -27 3 -53 3 -57 -2z m322 -524 l0 -40 -40 0
-40 0 0 40 0 40 40 0 40 0 0 -40z m-80 -400 l0 -40 -40 0 -40 0 0 40 0 40 40
0 40 0 0 -40z m235 0 l0 -35 -72 -3 -73 -3 0 41 0 41 73 -3 72 -3 0 -35z"/>
<path d="M0 840 l0 -40 80 0 80 0 0 40 0 40 -80 0 -80 0 0 -40z"/>
<path d="M880 520 l0 -40 120 0 120 0 0 40 0 40 -120 0 -120 0 0 -40z"/>
<path d="M1038 123 l-3 -38 -77 -3 -78 -3 0 -39 0 -40 119 0 120 0 3 38 c3 35
5 37 41 40 36 3 37 4 37 43 l0 39 -79 0 -80 0 -3 -37z"/>
</g>
</svg>
