<svg width="128" height="128" xmlns="http://www.w3.org/2000/svg">
 <metadata>Made with Pixels to Svg https://codepen.io/shshaw/pen/XbxvNj</metadata>

 <g>
  <title>background</title>
  <rect fill="none" id="canvas_background" height="602" width="802" y="-1" x="-1"/>
 </g>
 <g>
  <title>Layer 1</title>
  <path id="svg_1" d="m0,0l8,0m32,0l8,0m56,0l8,0m8,0l8,0m-128,1l8,0m32,0l8,0m56,0l8,0m8,0l8,0m-128,1l8,0m32,0l8,0m56,0l8,0m8,0l8,0m-128,1l8,0m32,0l8,0m56,0l8,0m8,0l8,0m-128,1l8,0m32,0l8,0m56,0l8,0m8,0l8,0m-128,1l8,0m32,0l8,0m56,0l8,0m8,0l8,0m-128,1l8,0m32,0l8,0m56,0l8,0m8,0l8,0m-128,1l8,0m32,0l8,0m56,0l8,0m8,0l8,0m-56,1l8,0m-8,1l8,0m-8,1l8,0m-8,1l8,0m-8,1l8,0m-8,1l8,0m-8,1l8,0m-8,1l8,0m-80,1l8,0m24,0l8,0m24,0l8,0m40,0l8,0m-120,1l8,0m24,0l8,0m24,0l8,0m40,0l8,0m-120,1l8,0m24,0l8,0m24,0l8,0m40,0l8,0m-120,1l8,0m24,0l8,0m24,0l8,0m40,0l8,0m-120,1l8,0m24,0l8,0m24,0l8,0m40,0l8,0m-120,1l8,0m24,0l8,0m24,0l8,0m40,0l8,0m-120,1l8,0m24,0l8,0m24,0l8,0m40,0l8,0m-120,1l8,0m24,0l8,0m24,0l8,0m40,0l8,0m-104,1l8,0m32,0l8,0m40,0l8,0m-96,1l8,0m32,0l8,0m40,0l8,0m-96,1l8,0m32,0l8,0m40,0l8,0m-96,1l8,0m32,0l8,0m40,0l8,0m-96,1l8,0m32,0l8,0m40,0l8,0m-96,1l8,0m32,0l8,0m40,0l8,0m-96,1l8,0m32,0l8,0m40,0l8,0m-96,1l8,0m32,0l8,0m40,0l8,0m-88,1l8,0m-8,1l8,0m-8,1l8,0m-8,1l8,0m-8,1l8,0m-8,1l8,0m-8,1l8,0m-8,1l8,0m88,1l8,0m-8,1l8,0m-8,1l8,0m-8,1l8,0m-8,1l8,0m-8,1l8,0m-8,1l8,0m-8,1l8,0m-128,1l8,0m48,0l16,0m8,0l16,0m-96,1l8,0m48,0l16,0m8,0l16,0m-96,1l8,0m48,0l16,0m8,0l16,0m-96,1l8,0m48,0l16,0m8,0l16,0m-96,1l8,0m48,0l16,0m8,0l16,0m-96,1l8,0m48,0l16,0m8,0l16,0m-96,1l8,0m48,0l16,0m8,0l16,0m-96,1l8,0m48,0l16,0m8,0l16,0m-96,1l8,0m8,0l16,0m-32,1l8,0m8,0l16,0m-32,1l8,0m8,0l16,0m-32,1l8,0m8,0l16,0m-32,1l8,0m8,0l16,0m-32,1l8,0m8,0l16,0m-32,1l8,0m8,0l16,0m-32,1l8,0m8,0l16,0m64,9l16,0m-16,1l16,0m-16,1l16,0m-16,1l16,0m-16,1l16,0m-16,1l16,0m-16,1l16,0m-16,1l16,0m-88,1l16,0m8,0l8,0m16,0l16,0m-64,1l16,0m8,0l8,0m16,0l16,0m-64,1l16,0m8,0l8,0m16,0l16,0m-64,1l16,0m8,0l8,0m16,0l16,0m-64,1l16,0m8,0l8,0m16,0l16,0m-64,1l16,0m8,0l8,0m16,0l16,0m-64,1l16,0m8,0l8,0m16,0l16,0m-64,1l16,0m8,0l8,0m16,0l16,0m-48,1l8,0m-8,1l8,0m-8,1l8,0m-8,1l8,0m-8,1l8,0m-8,1l8,0m-8,1l8,0m-8,1l8,0m0,1l8,0m56,0l16,0m-80,1l8,0m56,0l16,0m-80,1l8,0m56,0l16,0m-80,1l8,0m56,0l16,0m-80,1l8,0m56,0l16,0m-80,1l8,0m56,0l16,0m-80,1l8,0m56,0l16,0m-80,1l8,0m56,0l16,0m-48,1l8,0m16,0l8,0m-32,1l8,0m16,0l8,0m-32,1l8,0m16,0l8,0m-32,1l8,0m16,0l8,0m-32,1l8,0m16,0l8,0m-32,1l8,0m16,0l8,0m-32,1l8,0m16,0l8,0m-32,1l8,0m16,0l8,0m-88,1l8,0m-8,1l8,0m-8,1l8,0m-8,1l8,0m-8,1l8,0m-8,1l8,0m-8,1l8,0m-8,1l8,0m-16,1l8,0m-8,1l8,0m-8,1l8,0m-8,1l8,0m-8,1l8,0m-8,1l8,0m-8,1l8,0m-8,1l8,0" stroke="#b5835b"/>
  <path id="svg_2" d="m8,0l16,0m24,0l16,0m-56,1l16,0m24,0l16,0m-56,1l16,0m24,0l16,0m-56,1l16,0m24,0l16,0m-56,1l16,0m24,0l16,0m-56,1l16,0m24,0l16,0m-56,1l16,0m24,0l16,0m-56,1l16,0m24,0l16,0m-56,1l8,0m24,0l8,0m32,0l8,0m16,0l8,0m-104,1l8,0m24,0l8,0m32,0l8,0m16,0l8,0m-104,1l8,0m24,0l8,0m32,0l8,0m16,0l8,0m-104,1l8,0m24,0l8,0m32,0l8,0m16,0l8,0m-104,1l8,0m24,0l8,0m32,0l8,0m16,0l8,0m-104,1l8,0m24,0l8,0m32,0l8,0m16,0l8,0m-104,1l8,0m24,0l8,0m32,0l8,0m16,0l8,0m-104,1l8,0m24,0l8,0m32,0l8,0m16,0l8,0m-112,9l8,0m24,0l8,0m24,0l16,0m8,0l8,0m16,0l8,0m-120,1l8,0m24,0l8,0m24,0l16,0m8,0l8,0m16,0l8,0m-120,1l8,0m24,0l8,0m24,0l16,0m8,0l8,0m16,0l8,0m-120,1l8,0m24,0l8,0m24,0l16,0m8,0l8,0m16,0l8,0m-120,1l8,0m24,0l8,0m24,0l16,0m8,0l8,0m16,0l8,0m-120,1l8,0m24,0l8,0m24,0l16,0m8,0l8,0m16,0l8,0m-120,1l8,0m24,0l8,0m24,0l16,0m8,0l8,0m16,0l8,0m-120,1l8,0m24,0l8,0m24,0l16,0m8,0l8,0m16,0l8,0m-120,1l8,0m8,0l8,0m16,0l8,0m16,0l8,0m32,0l8,0m-112,1l8,0m8,0l8,0m16,0l8,0m16,0l8,0m32,0l8,0m-112,1l8,0m8,0l8,0m16,0l8,0m16,0l8,0m32,0l8,0m-112,1l8,0m8,0l8,0m16,0l8,0m16,0l8,0m32,0l8,0m-112,1l8,0m8,0l8,0m16,0l8,0m16,0l8,0m32,0l8,0m-112,1l8,0m8,0l8,0m16,0l8,0m16,0l8,0m32,0l8,0m-112,1l8,0m8,0l8,0m16,0l8,0m16,0l8,0m32,0l8,0m-112,1l8,0m8,0l8,0m16,0l8,0m16,0l8,0m32,0l8,0m-96,1l16,0m8,0l8,0m-32,1l16,0m8,0l8,0m-32,1l16,0m8,0l8,0m-32,1l16,0m8,0l8,0m-32,1l16,0m8,0l8,0m-32,1l16,0m8,0l8,0m-32,1l16,0m8,0l8,0m-32,1l16,0m8,0l8,0m56,1l8,0m8,0l8,0m-24,1l8,0m8,0l8,0m-24,1l8,0m8,0l8,0m-24,1l8,0m8,0l8,0m-24,1l8,0m8,0l8,0m-24,1l8,0m8,0l8,0m-24,1l8,0m8,0l8,0m-24,1l8,0m8,0l8,0m-96,1l16,0m16,0l8,0m8,0l16,0m16,0l16,0m-96,1l16,0m16,0l8,0m8,0l16,0m16,0l16,0m-96,1l16,0m16,0l8,0m8,0l16,0m16,0l16,0m-96,1l16,0m16,0l8,0m8,0l16,0m16,0l16,0m-96,1l16,0m16,0l8,0m8,0l16,0m16,0l16,0m-96,1l16,0m16,0l8,0m8,0l16,0m16,0l16,0m-96,1l16,0m16,0l8,0m8,0l16,0m16,0l16,0m-96,1l16,0m16,0l8,0m8,0l16,0m16,0l16,0m-128,1l8,0m16,0l8,0m8,0l8,0m24,0l16,0m-88,1l8,0m16,0l8,0m8,0l8,0m24,0l16,0m-88,1l8,0m16,0l8,0m8,0l8,0m24,0l16,0m-88,1l8,0m16,0l8,0m8,0l8,0m24,0l16,0m-88,1l8,0m16,0l8,0m8,0l8,0m24,0l16,0m-88,1l8,0m16,0l8,0m8,0l8,0m24,0l16,0m-88,1l8,0m16,0l8,0m8,0l8,0m24,0l16,0m-88,1l8,0m16,0l8,0m8,0l8,0m24,0l16,0m-88,1l16,0m104,0l8,0m-128,1l16,0m104,0l8,0m-128,1l16,0m104,0l8,0m-128,1l16,0m104,0l8,0m-128,1l16,0m104,0l8,0m-128,1l16,0m104,0l8,0m-128,1l16,0m104,0l8,0m-128,1l16,0m104,0l8,0m-128,1l16,0m40,0l8,0m32,0l16,0m-112,1l16,0m40,0l8,0m32,0l16,0m-112,1l16,0m40,0l8,0m32,0l16,0m-112,1l16,0m40,0l8,0m32,0l16,0m-112,1l16,0m40,0l8,0m32,0l16,0m-112,1l16,0m40,0l8,0m32,0l16,0m-112,1l16,0m40,0l8,0m32,0l16,0m-112,1l16,0m40,0l8,0m32,0l16,0m-112,1l8,0m16,0l16,0m16,0l8,0m8,0l16,0m16,0l8,0m-112,1l8,0m16,0l16,0m16,0l8,0m8,0l16,0m16,0l8,0m-112,1l8,0m16,0l16,0m16,0l8,0m8,0l16,0m16,0l8,0m-112,1l8,0m16,0l16,0m16,0l8,0m8,0l16,0m16,0l8,0m-112,1l8,0m16,0l16,0m16,0l8,0m8,0l16,0m16,0l8,0m-112,1l8,0m16,0l16,0m16,0l8,0m8,0l16,0m16,0l8,0m-112,1l8,0m16,0l16,0m16,0l8,0m8,0l16,0m16,0l8,0m-112,1l8,0m16,0l16,0m16,0l8,0m8,0l16,0m16,0l8,0m-96,1l8,0m8,0l16,0m-32,1l8,0m8,0l16,0m-32,1l8,0m8,0l16,0m-32,1l8,0m8,0l16,0m-32,1l8,0m8,0l16,0m-32,1l8,0m8,0l16,0m-32,1l8,0m8,0l16,0m-32,1l8,0m8,0l16,0m-40,1l8,0m32,0l16,0m48,0l16,0m-120,1l8,0m32,0l16,0m48,0l16,0m-120,1l8,0m32,0l16,0m48,0l16,0m-120,1l8,0m32,0l16,0m48,0l16,0m-120,1l8,0m32,0l16,0m48,0l16,0m-120,1l8,0m32,0l16,0m48,0l16,0m-120,1l8,0m32,0l16,0m48,0l16,0m-120,1l8,0m32,0l16,0m48,0l16,0m-128,1l8,0m104,0l16,0m-128,1l8,0m104,0l16,0m-128,1l8,0m104,0l16,0m-128,1l8,0m104,0l16,0m-128,1l8,0m104,0l16,0m-128,1l8,0m104,0l16,0m-128,1l8,0m104,0l16,0m-128,1l8,0m104,0l16,0m-128,1l8,0m16,0l16,0m16,0l24,0m16,0l16,0m-112,1l8,0m16,0l16,0m16,0l24,0m16,0l16,0m-112,1l8,0m16,0l16,0m16,0l24,0m16,0l16,0m-112,1l8,0m16,0l16,0m16,0l24,0m16,0l16,0m-112,1l8,0m16,0l16,0m16,0l24,0m16,0l16,0m-112,1l8,0m16,0l16,0m16,0l24,0m16,0l16,0m-112,1l8,0m16,0l16,0m16,0l24,0m16,0l16,0m-112,1l8,0m16,0l16,0m16,0l24,0m16,0l16,0" stroke="#936b48"/>
  <path id="svg_3" d="m24,0l16,0m24,0l16,0m8,0l16,0m8,0l8,0m-96,1l16,0m24,0l16,0m8,0l16,0m8,0l8,0m-96,1l16,0m24,0l16,0m8,0l16,0m8,0l8,0m-96,1l16,0m24,0l16,0m8,0l16,0m8,0l8,0m-96,1l16,0m24,0l16,0m8,0l16,0m8,0l8,0m-96,1l16,0m24,0l16,0m8,0l16,0m8,0l8,0m-96,1l16,0m24,0l16,0m8,0l16,0m8,0l8,0m-96,1l16,0m24,0l16,0m8,0l16,0m8,0l8,0m-120,1l8,0m16,0l16,0m24,0l8,0m16,0l16,0m-104,1l8,0m16,0l16,0m24,0l8,0m16,0l16,0m-104,1l8,0m16,0l16,0m24,0l8,0m16,0l16,0m-104,1l8,0m16,0l16,0m24,0l8,0m16,0l16,0m-104,1l8,0m16,0l16,0m24,0l8,0m16,0l16,0m-104,1l8,0m16,0l16,0m24,0l8,0m16,0l16,0m-104,1l8,0m16,0l16,0m24,0l8,0m16,0l16,0m-104,1l8,0m16,0l16,0m24,0l8,0m16,0l16,0m-96,1l16,0m16,0l24,0m8,0l24,0m24,0l8,0m-120,1l16,0m16,0l24,0m8,0l24,0m24,0l8,0m-120,1l16,0m16,0l24,0m8,0l24,0m24,0l8,0m-120,1l16,0m16,0l24,0m8,0l24,0m24,0l8,0m-120,1l16,0m16,0l24,0m8,0l24,0m24,0l8,0m-120,1l16,0m16,0l24,0m8,0l24,0m24,0l8,0m-120,1l16,0m16,0l24,0m8,0l24,0m24,0l8,0m-120,1l16,0m16,0l24,0m8,0l24,0m24,0l8,0m-104,1l8,0m16,0l8,0m24,0l8,0m8,0l8,0m16,0l8,0m-104,1l8,0m16,0l8,0m24,0l8,0m8,0l8,0m16,0l8,0m-104,1l8,0m16,0l8,0m24,0l8,0m8,0l8,0m16,0l8,0m-104,1l8,0m16,0l8,0m24,0l8,0m8,0l8,0m16,0l8,0m-104,1l8,0m16,0l8,0m24,0l8,0m8,0l8,0m16,0l8,0m-104,1l8,0m16,0l8,0m24,0l8,0m8,0l8,0m16,0l8,0m-104,1l8,0m16,0l8,0m24,0l8,0m8,0l8,0m16,0l8,0m-104,1l8,0m16,0l8,0m24,0l8,0m8,0l8,0m16,0l8,0m-120,1l8,0m32,0l16,0m16,0l8,0m8,0l8,0m16,0l8,0m-120,1l8,0m32,0l16,0m16,0l8,0m8,0l8,0m16,0l8,0m-120,1l8,0m32,0l16,0m16,0l8,0m8,0l8,0m16,0l8,0m-120,1l8,0m32,0l16,0m16,0l8,0m8,0l8,0m16,0l8,0m-120,1l8,0m32,0l16,0m16,0l8,0m8,0l8,0m16,0l8,0m-120,1l8,0m32,0l16,0m16,0l8,0m8,0l8,0m16,0l8,0m-120,1l8,0m32,0l16,0m16,0l8,0m8,0l8,0m16,0l8,0m-120,1l8,0m32,0l16,0m16,0l8,0m8,0l8,0m16,0l8,0m-128,1l8,0m24,0l8,0m32,0l16,0m8,0l24,0m-120,1l8,0m24,0l8,0m32,0l16,0m8,0l24,0m-120,1l8,0m24,0l8,0m32,0l16,0m8,0l24,0m-120,1l8,0m24,0l8,0m32,0l16,0m8,0l24,0m-120,1l8,0m24,0l8,0m32,0l16,0m8,0l24,0m-120,1l8,0m24,0l8,0m32,0l16,0m8,0l24,0m-120,1l8,0m24,0l8,0m32,0l16,0m8,0l24,0m-120,1l8,0m24,0l8,0m32,0l16,0m8,0l24,0m-104,1l16,0m8,0l16,0m16,0l8,0m16,0l8,0m8,0l8,0m-104,1l16,0m8,0l16,0m16,0l8,0m16,0l8,0m8,0l8,0m-104,1l16,0m8,0l16,0m16,0l8,0m16,0l8,0m8,0l8,0m-104,1l16,0m8,0l16,0m16,0l8,0m16,0l8,0m8,0l8,0m-104,1l16,0m8,0l16,0m16,0l8,0m16,0l8,0m8,0l8,0m-104,1l16,0m8,0l16,0m16,0l8,0m16,0l8,0m8,0l8,0m-104,1l16,0m8,0l16,0m16,0l8,0m16,0l8,0m8,0l8,0m-104,1l16,0m8,0l16,0m16,0l8,0m16,0l8,0m8,0l8,0m-112,1l8,0m32,0l16,0m32,0l16,0m-104,1l8,0m32,0l16,0m32,0l16,0m-104,1l8,0m32,0l16,0m32,0l16,0m-104,1l8,0m32,0l16,0m32,0l16,0m-104,1l8,0m32,0l16,0m32,0l16,0m-104,1l8,0m32,0l16,0m32,0l16,0m-104,1l8,0m32,0l16,0m32,0l16,0m-104,1l8,0m32,0l16,0m32,0l16,0m-104,1l16,0m8,0l8,0m8,0l8,0m8,0l8,0m16,0l24,0m8,0l8,0m-120,1l16,0m8,0l8,0m8,0l8,0m8,0l8,0m16,0l24,0m8,0l8,0m-120,1l16,0m8,0l8,0m8,0l8,0m8,0l8,0m16,0l24,0m8,0l8,0m-120,1l16,0m8,0l8,0m8,0l8,0m8,0l8,0m16,0l24,0m8,0l8,0m-120,1l16,0m8,0l8,0m8,0l8,0m8,0l8,0m16,0l24,0m8,0l8,0m-120,1l16,0m8,0l8,0m8,0l8,0m8,0l8,0m16,0l24,0m8,0l8,0m-120,1l16,0m8,0l8,0m8,0l8,0m8,0l8,0m16,0l24,0m8,0l8,0m-120,1l16,0m8,0l8,0m8,0l8,0m8,0l8,0m16,0l24,0m8,0l8,0m-104,1l16,0m16,0l40,0m16,0l8,0m-96,1l16,0m16,0l40,0m16,0l8,0m-96,1l16,0m16,0l40,0m16,0l8,0m-96,1l16,0m16,0l40,0m16,0l8,0m-96,1l16,0m16,0l40,0m16,0l8,0m-96,1l16,0m16,0l40,0m16,0l8,0m-96,1l16,0m16,0l40,0m16,0l8,0m-96,1l16,0m16,0l40,0m16,0l8,0m-104,1l8,0m16,0l8,0m40,0l8,0m24,0l8,0m-112,1l8,0m16,0l8,0m40,0l8,0m24,0l8,0m-112,1l8,0m16,0l8,0m40,0l8,0m24,0l8,0m-112,1l8,0m16,0l8,0m40,0l8,0m24,0l8,0m-112,1l8,0m16,0l8,0m40,0l8,0m24,0l8,0m-112,1l8,0m16,0l8,0m40,0l8,0m24,0l8,0m-112,1l8,0m16,0l8,0m40,0l8,0m24,0l8,0m-112,1l8,0m16,0l8,0m40,0l8,0m24,0l8,0m-120,1l16,0m24,0l8,0m32,0l8,0m16,0l8,0m-112,1l16,0m24,0l8,0m32,0l8,0m16,0l8,0m-112,1l16,0m24,0l8,0m32,0l8,0m16,0l8,0m-112,1l16,0m24,0l8,0m32,0l8,0m16,0l8,0m-112,1l16,0m24,0l8,0m32,0l8,0m16,0l8,0m-112,1l16,0m24,0l8,0m32,0l8,0m16,0l8,0m-112,1l16,0m24,0l8,0m32,0l8,0m16,0l8,0m-112,1l16,0m24,0l8,0m32,0l8,0m16,0l8,0m-120,1l8,0m16,0l8,0m24,0l56,0m-112,1l8,0m16,0l8,0m24,0l56,0m-112,1l8,0m16,0l8,0m24,0l56,0m-112,1l8,0m16,0l8,0m24,0l56,0m-112,1l8,0m16,0l8,0m24,0l56,0m-112,1l8,0m16,0l8,0m24,0l56,0m-112,1l8,0m16,0l8,0m24,0l56,0m-112,1l8,0m16,0l8,0m24,0l56,0m-112,1l8,0m8,0l16,0m8,0l8,0m16,0l8,0m24,0l8,0m-104,1l8,0m8,0l16,0m8,0l8,0m16,0l8,0m24,0l8,0m-104,1l8,0m8,0l16,0m8,0l8,0m16,0l8,0m24,0l8,0m-104,1l8,0m8,0l16,0m8,0l8,0m16,0l8,0m24,0l8,0m-104,1l8,0m8,0l16,0m8,0l8,0m16,0l8,0m24,0l8,0m-104,1l8,0m8,0l16,0m8,0l8,0m16,0l8,0m24,0l8,0m-104,1l8,0m8,0l16,0m8,0l8,0m16,0l8,0m24,0l8,0m-104,1l8,0m8,0l16,0m8,0l8,0m16,0l8,0m24,0l8,0m-96,1l8,0m16,0l8,0m8,0l8,0m8,0l24,0m8,0l16,0m-104,1l8,0m16,0l8,0m8,0l8,0m8,0l24,0m8,0l16,0m-104,1l8,0m16,0l8,0m8,0l8,0m8,0l24,0m8,0l16,0m-104,1l8,0m16,0l8,0m8,0l8,0m8,0l24,0m8,0l16,0m-104,1l8,0m16,0l8,0m8,0l8,0m8,0l24,0m8,0l16,0m-104,1l8,0m16,0l8,0m8,0l8,0m8,0l24,0m8,0l16,0m-104,1l8,0m16,0l8,0m8,0l8,0m8,0l24,0m8,0l16,0m-104,1l8,0m16,0l8,0m8,0l8,0m8,0l24,0m8,0l16,0m-104,1l8,0m24,0l8,0m32,0l16,0m16,0l8,0m-112,1l8,0m24,0l8,0m32,0l16,0m16,0l8,0m-112,1l8,0m24,0l8,0m32,0l16,0m16,0l8,0m-112,1l8,0m24,0l8,0m32,0l16,0m16,0l8,0m-112,1l8,0m24,0l8,0m32,0l16,0m16,0l8,0m-112,1l8,0m24,0l8,0m32,0l16,0m16,0l8,0m-112,1l8,0m24,0l8,0m32,0l16,0m16,0l8,0m-112,1l8,0m24,0l8,0m32,0l16,0m16,0l8,0" stroke="#755438"/>
  <path id="svg_4" d="m80,0l8,0m-8,1l8,0m-8,1l8,0m-8,1l8,0m-8,1l8,0m-8,1l8,0m-8,1l8,0m-8,1l8,0m-72,1l8,0m32,0l8,0m48,0l16,0m-112,1l8,0m32,0l8,0m48,0l16,0m-112,1l8,0m32,0l8,0m48,0l16,0m-112,1l8,0m32,0l8,0m48,0l16,0m-112,1l8,0m32,0l8,0m48,0l16,0m-112,1l8,0m32,0l8,0m48,0l16,0m-112,1l8,0m32,0l8,0m48,0l16,0m-112,1l8,0m32,0l8,0m48,0l16,0m-104,1l8,0m64,0l16,0m-88,1l8,0m64,0l16,0m-88,1l8,0m64,0l16,0m-88,1l8,0m64,0l16,0m-88,1l8,0m64,0l16,0m-88,1l8,0m64,0l16,0m-88,1l8,0m64,0l16,0m-88,1l8,0m64,0l16,0m-72,1l8,0m-8,1l8,0m-8,1l8,0m-8,1l8,0m-8,1l8,0m-8,1l8,0m-8,1l8,0m-8,1l8,0m-16,1l8,0m32,0l8,0m32,0l8,0m-88,1l8,0m32,0l8,0m32,0l8,0m-88,1l8,0m32,0l8,0m32,0l8,0m-88,1l8,0m32,0l8,0m32,0l8,0m-88,1l8,0m32,0l8,0m32,0l8,0m-88,1l8,0m32,0l8,0m32,0l8,0m-88,1l8,0m32,0l8,0m32,0l8,0m-88,1l8,0m32,0l8,0m32,0l8,0m-112,1l8,0m32,0l24,0m16,0l8,0m-88,1l8,0m32,0l24,0m16,0l8,0m-88,1l8,0m32,0l24,0m16,0l8,0m-88,1l8,0m32,0l24,0m16,0l8,0m-88,1l8,0m32,0l24,0m16,0l8,0m-88,1l8,0m32,0l24,0m16,0l8,0m-88,1l8,0m32,0l24,0m16,0l8,0m-88,1l8,0m32,0l24,0m16,0l8,0m-88,1l8,0m-8,1l8,0m-8,1l8,0m-8,1l8,0m-8,1l8,0m-8,1l8,0m-8,1l8,0m-8,1l8,0m56,1l8,0m-8,1l8,0m-8,1l8,0m-8,1l8,0m-8,1l8,0m-8,1l8,0m-8,1l8,0m-8,1l8,0m-24,1l8,0m48,0l8,0m-64,1l8,0m48,0l8,0m-64,1l8,0m48,0l8,0m-64,1l8,0m48,0l8,0m-64,1l8,0m48,0l8,0m-64,1l8,0m48,0l8,0m-64,1l8,0m48,0l8,0m-64,1l8,0m48,0l8,0m-104,1l8,0m16,0l16,0m-40,1l8,0m16,0l16,0m-40,1l8,0m16,0l16,0m-40,1l8,0m16,0l16,0m-40,1l8,0m16,0l16,0m-40,1l8,0m16,0l16,0m-40,1l8,0m16,0l16,0m-40,1l8,0m16,0l16,0m8,1l8,0m-8,1l8,0m-8,1l8,0m-8,1l8,0m-8,1l8,0m-8,1l8,0m-8,1l8,0m-8,1l8,0m24,1l8,0m16,0l8,0m-32,1l8,0m16,0l8,0m-32,1l8,0m16,0l8,0m-32,1l8,0m16,0l8,0m-32,1l8,0m16,0l8,0m-32,1l8,0m16,0l8,0m-32,1l8,0m16,0l8,0m-32,1l8,0m16,0l8,0m-120,1l8,0m-8,1l8,0m-8,1l8,0m-8,1l8,0m-8,1l8,0m-8,1l8,0m-8,1l8,0m-8,1l8,0m56,1l8,0m8,0l8,0m-24,1l8,0m8,0l8,0m-24,1l8,0m8,0l8,0m-24,1l8,0m8,0l8,0m-24,1l8,0m8,0l8,0m-24,1l8,0m8,0l8,0m-24,1l8,0m8,0l8,0m-24,1l8,0m8,0l8,0m-80,1l8,0m16,0l8,0m8,0l8,0m24,0l8,0m-80,1l8,0m16,0l8,0m8,0l8,0m24,0l8,0m-80,1l8,0m16,0l8,0m8,0l8,0m24,0l8,0m-80,1l8,0m16,0l8,0m8,0l8,0m24,0l8,0m-80,1l8,0m16,0l8,0m8,0l8,0m24,0l8,0m-80,1l8,0m16,0l8,0m8,0l8,0m24,0l8,0m-80,1l8,0m16,0l8,0m8,0l8,0m24,0l8,0m-80,1l8,0m16,0l8,0m8,0l8,0m24,0l8,0m24,1l8,0m-8,1l8,0m-8,1l8,0m-8,1l8,0m-8,1l8,0m-8,1l8,0m-8,1l8,0m-8,1l8,0" stroke="#583c28"/>
  <path id="svg_5" d="m48,8l8,0m-8,1l8,0m-8,1l8,0m-8,1l8,0m-8,1l8,0m-8,1l8,0m-8,1l8,0m-8,1l8,0m-24,33l8,0m-8,1l8,0m-8,1l8,0m-8,1l8,0m-8,1l8,0m-8,1l8,0m-8,1l8,0m-8,1l8,0m72,25l8,0m-8,1l8,0m-8,1l8,0m-8,1l8,0m-8,1l8,0m-8,1l8,0m-8,1l8,0m-8,1l8,0m-72,33l8,0m-8,1l8,0m-8,1l8,0m-8,1l8,0m-8,1l8,0m-8,1l8,0m-8,1l8,0m-8,1l8,0" stroke="#838583"/>
  <path id="svg_6" d="m8,24l8,0m-8,1l8,0m-8,1l8,0m-8,1l8,0m-8,1l8,0m-8,1l8,0m-8,1l8,0m-8,1l8,0m72,1l8,0m-8,1l8,0m-8,1l8,0m-8,1l8,0m-8,1l8,0m-8,1l8,0m-8,1l8,0m-8,1l8,0m-32,49l8,0m-8,1l8,0m-8,1l8,0m-8,1l8,0m-8,1l8,0m-8,1l8,0m-8,1l8,0m-8,1l8,0" stroke="#6b6b6b"/>
  <path id="svg_7" d="m32,104l8,0m-8,1l8,0m-8,1l8,0m-8,1l8,0m-8,1l8,0m-8,1l8,0m-8,1l8,0m-8,1l8,0" stroke="#705743"/>
 </g>
</svg>