<svg xmlns="http://www.w3.org/2000/svg" viewBox="0 -0.5 128 128" shape-rendering="crispEdges">
<metadata>Made with Pixels to Svg https://codepen.io/shshaw/pen/XbxvNj</metadata>
<path stroke="#b5835b" d="M0 0h8M40 0h8M104 0h8M120 0h8M0 1h8M40 1h8M104 1h8M120 1h8M0 2h8M40 2h8M104 2h8M120 2h8M0 3h8M40 3h8M104 3h8M120 3h8M0 4h8M40 4h8M104 4h8M120 4h8M0 5h8M40 5h8M104 5h8M120 5h8M0 6h8M40 6h8M104 6h8M120 6h8M0 7h8M40 7h8M104 7h8M120 7h8M72 8h8M72 9h8M72 10h8M72 11h8M72 12h8M72 13h8M72 14h8M72 15h8M0 16h8M32 16h8M64 16h8M112 16h8M0 17h8M32 17h8M64 17h8M112 17h8M0 18h8M32 18h8M64 18h8M112 18h8M0 19h8M32 19h8M64 19h8M112 19h8M0 20h8M32 20h8M64 20h8M112 20h8M0 21h8M32 21h8M64 21h8M112 21h8M0 22h8M32 22h8M64 22h8M112 22h8M0 23h8M32 23h8M64 23h8M112 23h8M16 24h8M56 24h8M104 24h8M16 25h8M56 25h8M104 25h8M16 26h8M56 26h8M104 26h8M16 27h8M56 27h8M104 27h8M16 28h8M56 28h8M104 28h8M16 29h8M56 29h8M104 29h8M16 30h8M56 30h8M104 30h8M16 31h8M56 31h8M104 31h8M24 32h8M24 33h8M24 34h8M24 35h8M24 36h8M24 37h8M24 38h8M24 39h8M120 40h8M120 41h8M120 42h8M120 43h8M120 44h8M120 45h8M120 46h8M120 47h8M0 48h8M56 48h16M80 48h16M0 49h8M56 49h16M80 49h16M0 50h8M56 50h16M80 50h16M0 51h8M56 51h16M80 51h16M0 52h8M56 52h16M80 52h16M0 53h8M56 53h16M80 53h16M0 54h8M56 54h16M80 54h16M0 55h8M56 55h16M80 55h16M0 56h8M16 56h16M0 57h8M16 57h16M0 58h8M16 58h16M0 59h8M16 59h16M0 60h8M16 60h16M0 61h8M16 61h16M0 62h8M16 62h16M0 63h8M16 63h16M96 72h16M96 73h16M96 74h16M96 75h16M96 76h16M96 77h16M96 78h16M96 79h16M24 80h16M48 80h8M72 80h16M24 81h16M48 81h8M72 81h16M24 82h16M48 82h8M72 82h16M24 83h16M48 83h8M72 83h16M24 84h16M48 84h8M72 84h16M24 85h16M48 85h8M72 85h16M24 86h16M48 86h8M72 86h16M24 87h16M48 87h8M72 87h16M40 88h8M40 89h8M40 90h8M40 91h8M40 92h8M40 93h8M40 94h8M40 95h8M48 96h8M112 96h16M48 97h8M112 97h16M48 98h8M112 98h16M48 99h8M112 99h16M48 100h8M112 100h16M48 101h8M112 101h16M48 102h8M112 102h16M48 103h8M112 103h16M80 104h8M104 104h8M80 105h8M104 105h8M80 106h8M104 106h8M80 107h8M104 107h8M80 108h8M104 108h8M80 109h8M104 109h8M80 110h8M104 110h8M80 111h8M104 111h8M24 112h8M24 113h8M24 114h8M24 115h8M24 116h8M24 117h8M24 118h8M24 119h8M16 120h8M16 121h8M16 122h8M16 123h8M16 124h8M16 125h8M16 126h8M16 127h8" />
<path stroke="#936b48" d="M8 0h16M48 0h16M8 1h16M48 1h16M8 2h16M48 2h16M8 3h16M48 3h16M8 4h16M48 4h16M8 5h16M48 5h16M8 6h16M48 6h16M8 7h16M48 7h16M8 8h8M40 8h8M80 8h8M104 8h8M8 9h8M40 9h8M80 9h8M104 9h8M8 10h8M40 10h8M80 10h8M104 10h8M8 11h8M40 11h8M80 11h8M104 11h8M8 12h8M40 12h8M80 12h8M104 12h8M8 13h8M40 13h8M80 13h8M104 13h8M8 14h8M40 14h8M80 14h8M104 14h8M8 15h8M40 15h8M80 15h8M104 15h8M0 24h8M32 24h8M64 24h16M88 24h8M112 24h8M0 25h8M32 25h8M64 25h16M88 25h8M112 25h8M0 26h8M32 26h8M64 26h16M88 26h8M112 26h8M0 27h8M32 27h8M64 27h16M88 27h8M112 27h8M0 28h8M32 28h8M64 28h16M88 28h8M112 28h8M0 29h8M32 29h8M64 29h16M88 29h8M112 29h8M0 30h8M32 30h8M64 30h16M88 30h8M112 30h8M0 31h8M32 31h8M64 31h16M88 31h8M112 31h8M0 32h8M16 32h8M40 32h8M64 32h8M104 32h8M0 33h8M16 33h8M40 33h8M64 33h8M104 33h8M0 34h8M16 34h8M40 34h8M64 34h8M104 34h8M0 35h8M16 35h8M40 35h8M64 35h8M104 35h8M0 36h8M16 36h8M40 36h8M64 36h8M104 36h8M0 37h8M16 37h8M40 37h8M64 37h8M104 37h8M0 38h8M16 38h8M40 38h8M64 38h8M104 38h8M0 39h8M16 39h8M40 39h8M64 39h8M104 39h8M16 40h16M40 40h8M16 41h16M40 41h8M16 42h16M40 42h8M16 43h16M40 43h8M16 44h16M40 44h8M16 45h16M40 45h8M16 46h16M40 46h8M16 47h16M40 47h8M104 48h8M120 48h8M104 49h8M120 49h8M104 50h8M120 50h8M104 51h8M120 51h8M104 52h8M120 52h8M104 53h8M120 53h8M104 54h8M120 54h8M104 55h8M120 55h8M32 56h16M64 56h8M80 56h16M112 56h16M32 57h16M64 57h8M80 57h16M112 57h16M32 58h16M64 58h8M80 58h16M112 58h16M32 59h16M64 59h8M80 59h16M112 59h16M32 60h16M64 60h8M80 60h16M112 60h16M32 61h16M64 61h8M80 61h16M112 61h16M32 62h16M64 62h8M80 62h16M112 62h16M32 63h16M64 63h8M80 63h16M112 63h16M0 64h8M24 64h8M40 64h8M72 64h16M0 65h8M24 65h8M40 65h8M72 65h16M0 66h8M24 66h8M40 66h8M72 66h16M0 67h8M24 67h8M40 67h8M72 67h16M0 68h8M24 68h8M40 68h8M72 68h16M0 69h8M24 69h8M40 69h8M72 69h16M0 70h8M24 70h8M40 70h8M72 70h16M0 71h8M24 71h8M40 71h8M72 71h16M0 72h16M120 72h8M0 73h16M120 73h8M0 74h16M120 74h8M0 75h16M120 75h8M0 76h16M120 76h8M0 77h16M120 77h8M0 78h16M120 78h8M0 79h16M120 79h8M0 80h16M56 80h8M96 80h16M0 81h16M56 81h8M96 81h16M0 82h16M56 82h8M96 82h16M0 83h16M56 83h8M96 83h16M0 84h16M56 84h8M96 84h16M0 85h16M56 85h8M96 85h16M0 86h16M56 86h8M96 86h16M0 87h16M56 87h8M96 87h16M0 88h8M24 88h16M56 88h8M72 88h16M104 88h8M0 89h8M24 89h16M56 89h8M72 89h16M104 89h8M0 90h8M24 90h16M56 90h8M72 90h16M104 90h8M0 91h8M24 91h16M56 91h8M72 91h16M104 91h8M0 92h8M24 92h16M56 92h8M72 92h16M104 92h8M0 93h8M24 93h16M56 93h8M72 93h16M104 93h8M0 94h8M24 94h16M56 94h8M72 94h16M104 94h8M0 95h8M24 95h16M56 95h8M72 95h16M104 95h8M16 96h8M32 96h16M16 97h8M32 97h16M16 98h8M32 98h16M16 99h8M32 99h16M16 100h8M32 100h16M16 101h8M32 101h16M16 102h8M32 102h16M16 103h8M32 103h16M8 104h8M48 104h16M112 104h16M8 105h8M48 105h16M112 105h16M8 106h8M48 106h16M112 106h16M8 107h8M48 107h16M112 107h16M8 108h8M48 108h16M112 108h16M8 109h8M48 109h16M112 109h16M8 110h8M48 110h16M112 110h16M8 111h8M48 111h16M112 111h16M0 112h8M112 112h16M0 113h8M112 113h16M0 114h8M112 114h16M0 115h8M112 115h16M0 116h8M112 116h16M0 117h8M112 117h16M0 118h8M112 118h16M0 119h8M112 119h16M0 120h8M24 120h16M56 120h24M96 120h16M0 121h8M24 121h16M56 121h24M96 121h16M0 122h8M24 122h16M56 122h24M96 122h16M0 123h8M24 123h16M56 123h24M96 123h16M0 124h8M24 124h16M56 124h24M96 124h16M0 125h8M24 125h16M56 125h24M96 125h16M0 126h8M24 126h16M56 126h24M96 126h16M0 127h8M24 127h16M56 127h24M96 127h16" />
<path stroke="#755438" d="M24 0h16M64 0h16M88 0h16M112 0h8M24 1h16M64 1h16M88 1h16M112 1h8M24 2h16M64 2h16M88 2h16M112 2h8M24 3h16M64 3h16M88 3h16M112 3h8M24 4h16M64 4h16M88 4h16M112 4h8M24 5h16M64 5h16M88 5h16M112 5h8M24 6h16M64 6h16M88 6h16M112 6h8M24 7h16M64 7h16M88 7h16M112 7h8M0 8h8M24 8h16M64 8h8M88 8h16M0 9h8M24 9h16M64 9h8M88 9h16M0 10h8M24 10h16M64 10h8M88 10h16M0 11h8M24 11h16M64 11h8M88 11h16M0 12h8M24 12h16M64 12h8M88 12h16M0 13h8M24 13h16M64 13h8M88 13h16M0 14h8M24 14h16M64 14h8M88 14h16M0 15h8M24 15h16M64 15h8M88 15h16M8 16h16M40 16h24M72 16h24M120 16h8M8 17h16M40 17h24M72 17h24M120 17h8M8 18h16M40 18h24M72 18h24M120 18h8M8 19h16M40 19h24M72 19h24M120 19h8M8 20h16M40 20h24M72 20h24M120 20h8M8 21h16M40 21h24M72 21h24M120 21h8M8 22h16M40 22h24M72 22h24M120 22h8M8 23h16M40 23h24M72 23h24M120 23h8M24 24h8M48 24h8M80 24h8M96 24h8M120 24h8M24 25h8M48 25h8M80 25h8M96 25h8M120 25h8M24 26h8M48 26h8M80 26h8M96 26h8M120 26h8M24 27h8M48 27h8M80 27h8M96 27h8M120 27h8M24 28h8M48 28h8M80 28h8M96 28h8M120 28h8M24 29h8M48 29h8M80 29h8M96 29h8M120 29h8M24 30h8M48 30h8M80 30h8M96 30h8M120 30h8M24 31h8M48 31h8M80 31h8M96 31h8M120 31h8M8 32h8M48 32h16M80 32h8M96 32h8M120 32h8M8 33h8M48 33h16M80 33h8M96 33h8M120 33h8M8 34h8M48 34h16M80 34h8M96 34h8M120 34h8M8 35h8M48 35h16M80 35h8M96 35h8M120 35h8M8 36h8M48 36h16M80 36h8M96 36h8M120 36h8M8 37h8M48 37h16M80 37h8M96 37h8M120 37h8M8 38h8M48 38h16M80 38h8M96 38h8M120 38h8M8 39h8M48 39h16M80 39h8M96 39h8M120 39h8M0 40h8M32 40h8M72 40h16M96 40h24M0 41h8M32 41h8M72 41h16M96 41h24M0 42h8M32 42h8M72 42h16M96 42h24M0 43h8M32 43h8M72 43h16M96 43h24M0 44h8M32 44h8M72 44h16M96 44h24M0 45h8M32 45h8M72 45h16M96 45h24M0 46h8M32 46h8M72 46h16M96 46h24M0 47h8M32 47h8M72 47h16M96 47h24M16 48h16M40 48h16M72 48h8M96 48h8M112 48h8M16 49h16M40 49h16M72 49h8M96 49h8M112 49h8M16 50h16M40 50h16M72 50h8M96 50h8M112 50h8M16 51h16M40 51h16M72 51h8M96 51h8M112 51h8M16 52h16M40 52h16M72 52h8M96 52h8M112 52h8M16 53h16M40 53h16M72 53h8M96 53h8M112 53h8M16 54h16M40 54h16M72 54h8M96 54h8M112 54h8M16 55h16M40 55h16M72 55h8M96 55h8M112 55h8M8 56h8M48 56h16M96 56h16M8 57h8M48 57h16M96 57h16M8 58h8M48 58h16M96 58h16M8 59h8M48 59h16M96 59h16M8 60h8M48 60h16M96 60h16M8 61h8M48 61h16M96 61h16M8 62h8M48 62h16M96 62h16M8 63h8M48 63h16M96 63h16M8 64h16M32 64h8M48 64h8M64 64h8M88 64h24M120 64h8M8 65h16M32 65h8M48 65h8M64 65h8M88 65h24M120 65h8M8 66h16M32 66h8M48 66h8M64 66h8M88 66h24M120 66h8M8 67h16M32 67h8M48 67h8M64 67h8M88 67h24M120 67h8M8 68h16M32 68h8M48 68h8M64 68h8M88 68h24M120 68h8M8 69h16M32 69h8M48 69h8M64 69h8M88 69h24M120 69h8M8 70h16M32 70h8M48 70h8M64 70h8M88 70h24M120 70h8M8 71h16M32 71h8M48 71h8M64 71h8M88 71h24M120 71h8M24 72h16M56 72h40M112 72h8M24 73h16M56 73h40M112 73h8M24 74h16M56 74h40M112 74h8M24 75h16M56 75h40M112 75h8M24 76h16M56 76h40M112 76h8M24 77h16M56 77h40M112 77h8M24 78h16M56 78h40M112 78h8M24 79h16M56 79h40M112 79h8M16 80h8M40 80h8M88 80h8M120 80h8M16 81h8M40 81h8M88 81h8M120 81h8M16 82h8M40 82h8M88 82h8M120 82h8M16 83h8M40 83h8M88 83h8M120 83h8M16 84h8M40 84h8M88 84h8M120 84h8M16 85h8M40 85h8M88 85h8M120 85h8M16 86h8M40 86h8M88 86h8M120 86h8M16 87h8M40 87h8M88 87h8M120 87h8M8 88h16M48 88h8M88 88h8M112 88h8M8 89h16M48 89h8M88 89h8M112 89h8M8 90h16M48 90h8M88 90h8M112 90h8M8 91h16M48 91h8M88 91h8M112 91h8M8 92h16M48 92h8M88 92h8M112 92h8M8 93h16M48 93h8M88 93h8M112 93h8M8 94h16M48 94h8M88 94h8M112 94h8M8 95h16M48 95h8M88 95h8M112 95h8M0 96h8M24 96h8M56 96h56M0 97h8M24 97h8M56 97h56M0 98h8M24 98h8M56 98h56M0 99h8M24 99h8M56 99h56M0 100h8M24 100h8M56 100h56M0 101h8M24 101h8M56 101h56M0 102h8M24 102h8M56 102h56M0 103h8M24 103h8M56 103h56M0 104h8M16 104h16M40 104h8M64 104h8M96 104h8M0 105h8M16 105h16M40 105h8M64 105h8M96 105h8M0 106h8M16 106h16M40 106h8M64 106h8M96 106h8M0 107h8M16 107h16M40 107h8M64 107h8M96 107h8M0 108h8M16 108h16M40 108h8M64 108h8M96 108h8M0 109h8M16 109h16M40 109h8M64 109h8M96 109h8M0 110h8M16 110h16M40 110h8M64 110h8M96 110h8M0 111h8M16 111h16M40 111h8M64 111h8M96 111h8M8 112h8M32 112h8M48 112h8M64 112h24M96 112h16M8 113h8M32 113h8M48 113h8M64 113h24M96 113h16M8 114h8M32 114h8M48 114h8M64 114h24M96 114h16M8 115h8M32 115h8M48 115h8M64 115h24M96 115h16M8 116h8M32 116h8M48 116h8M64 116h24M96 116h16M8 117h8M32 117h8M48 117h8M64 117h24M96 117h16M8 118h8M32 118h8M48 118h8M64 118h24M96 118h16M8 119h8M32 119h8M48 119h8M64 119h24M96 119h16M8 120h8M40 120h8M80 120h16M112 120h8M8 121h8M40 121h8M80 121h16M112 121h8M8 122h8M40 122h8M80 122h16M112 122h8M8 123h8M40 123h8M80 123h16M112 123h8M8 124h8M40 124h8M80 124h16M112 124h8M8 125h8M40 125h8M80 125h16M112 125h8M8 126h8M40 126h8M80 126h16M112 126h8M8 127h8M40 127h8M80 127h16M112 127h8" />
<path stroke="#583c28" d="M80 0h8M80 1h8M80 2h8M80 3h8M80 4h8M80 5h8M80 6h8M80 7h8M16 8h8M56 8h8M112 8h16M16 9h8M56 9h8M112 9h16M16 10h8M56 10h8M112 10h16M16 11h8M56 11h8M112 11h16M16 12h8M56 12h8M112 12h16M16 13h8M56 13h8M112 13h16M16 14h8M56 14h8M112 14h16M16 15h8M56 15h8M112 15h16M24 16h8M96 16h16M24 17h8M96 17h16M24 18h8M96 18h16M24 19h8M96 19h16M24 20h8M96 20h16M24 21h8M96 21h16M24 22h8M96 22h16M24 23h8M96 23h16M40 24h8M40 25h8M40 26h8M40 27h8M40 28h8M40 29h8M40 30h8M40 31h8M32 32h8M72 32h8M112 32h8M32 33h8M72 33h8M112 33h8M32 34h8M72 34h8M112 34h8M32 35h8M72 35h8M112 35h8M32 36h8M72 36h8M112 36h8M32 37h8M72 37h8M112 37h8M32 38h8M72 38h8M112 38h8M32 39h8M72 39h8M112 39h8M8 40h8M48 40h24M88 40h8M8 41h8M48 41h24M88 41h8M8 42h8M48 42h24M88 42h8M8 43h8M48 43h24M88 43h8M8 44h8M48 44h24M88 44h8M8 45h8M48 45h24M88 45h8M8 46h8M48 46h24M88 46h8M8 47h8M48 47h24M88 47h8M8 48h8M8 49h8M8 50h8M8 51h8M8 52h8M8 53h8M8 54h8M8 55h8M72 56h8M72 57h8M72 58h8M72 59h8M72 60h8M72 61h8M72 62h8M72 63h8M56 64h8M112 64h8M56 65h8M112 65h8M56 66h8M112 66h8M56 67h8M112 67h8M56 68h8M112 68h8M56 69h8M112 69h8M56 70h8M112 70h8M56 71h8M112 71h8M16 72h8M40 72h16M16 73h8M40 73h16M16 74h8M40 74h16M16 75h8M40 75h16M16 76h8M40 76h16M16 77h8M40 77h16M16 78h8M40 78h16M16 79h8M40 79h16M64 80h8M64 81h8M64 82h8M64 83h8M64 84h8M64 85h8M64 86h8M64 87h8M96 88h8M120 88h8M96 89h8M120 89h8M96 90h8M120 90h8M96 91h8M120 91h8M96 92h8M120 92h8M96 93h8M120 93h8M96 94h8M120 94h8M96 95h8M120 95h8M8 96h8M8 97h8M8 98h8M8 99h8M8 100h8M8 101h8M8 102h8M8 103h8M72 104h8M88 104h8M72 105h8M88 105h8M72 106h8M88 106h8M72 107h8M88 107h8M72 108h8M88 108h8M72 109h8M88 109h8M72 110h8M88 110h8M72 111h8M88 111h8M16 112h8M40 112h8M56 112h8M88 112h8M16 113h8M40 113h8M56 113h8M88 113h8M16 114h8M40 114h8M56 114h8M88 114h8M16 115h8M40 115h8M56 115h8M88 115h8M16 116h8M40 116h8M56 116h8M88 116h8M16 117h8M40 117h8M56 117h8M88 117h8M16 118h8M40 118h8M56 118h8M88 118h8M16 119h8M40 119h8M56 119h8M88 119h8M120 120h8M120 121h8M120 122h8M120 123h8M120 124h8M120 125h8M120 126h8M120 127h8" />
<path stroke="#838583" d="M48 8h8M48 9h8M48 10h8M48 11h8M48 12h8M48 13h8M48 14h8M48 15h8M32 48h8M32 49h8M32 50h8M32 51h8M32 52h8M32 53h8M32 54h8M32 55h8M112 80h8M112 81h8M112 82h8M112 83h8M112 84h8M112 85h8M112 86h8M112 87h8M48 120h8M48 121h8M48 122h8M48 123h8M48 124h8M48 125h8M48 126h8M48 127h8" />
<path stroke="#6b6b6b" d="M8 24h8M8 25h8M8 26h8M8 27h8M8 28h8M8 29h8M8 30h8M8 31h8M88 32h8M88 33h8M88 34h8M88 35h8M88 36h8M88 37h8M88 38h8M88 39h8M64 88h8M64 89h8M64 90h8M64 91h8M64 92h8M64 93h8M64 94h8M64 95h8" />
<path stroke="#705743" d="M32 104h8M32 105h8M32 106h8M32 107h8M32 108h8M32 109h8M32 110h8M32 111h8" />
</svg>