<?xml version="1.0" standalone="no"?>
<!DOCTYPE svg PUBLIC "-//W3C//DTD SVG 20010904//EN"
 "http://www.w3.org/TR/2001/REC-SVG-20010904/DTD/svg10.dtd">
<svg version="1.0" xmlns="http://www.w3.org/2000/svg"
 width="50.000000pt" height="50.000000pt" viewBox="0 0 50.000000 50.000000"
 preserveAspectRatio="xMidYMid meet">

<g transform="translate(0.000000,50.000000) scale(0.100000,-0.100000)"
fill="#000000" stroke="none">
<path d="M310 462 c-51 -3 -90 -19 -90 -38 0 -15 -32 -24 -87 -24 -52 0 -57
-17 -8 -26 19 -3 32 -10 29 -15 -3 -5 4 -9 15 -9 12 0 21 5 21 10 0 6 7 10 15
10 8 0 15 -4 15 -10 0 -5 11 -10 25 -10 13 0 28 -7 32 -15 9 -16 39 -19 151
-17 109 3 89 22 -23 22 -79 0 -95 3 -95 15 0 9 7 18 15 21 25 10 17 24 -15 24
-23 0 -30 4 -30 20 0 19 7 20 98 22 53 0 103 1 110 1 6 -1 12 3 12 8 0 5 -17
9 -37 10 -21 1 -54 2 -73 3 -19 0 -55 0 -80 -2z"/>
<path d="M0 450 c0 -5 7 -10 15 -10 8 0 15 5 15 10 0 6 -7 10 -15 10 -8 0 -15
-4 -15 -10z"/>
<path d="M37 374 c-11 -11 -8 -34 4 -34 6 0 17 -6 24 -14 14 -13 65 -11 65 4
0 4 -14 10 -31 14 -18 3 -37 13 -43 22 -6 8 -15 12 -19 8z"/>
<path d="M315 270 c-4 -6 8 -10 30 -10 22 0 34 4 30 10 -3 6 -17 10 -30 10
-13 0 -27 -4 -30 -10z"/>
<path d="M150 212 c-24 -2 -47 -7 -50 -12 -3 -5 -17 -10 -30 -12 -23 -3 -76
-45 -68 -53 2 -2 65 -5 140 -7 124 -3 137 -1 142 15 7 28 26 19 26 -13 l0 -30
74 0 c56 0 75 4 80 15 3 8 12 15 21 15 8 0 15 5 15 10 0 6 -26 10 -59 10 -51
0 -61 3 -66 20 -5 17 -12 19 -50 14 -36 -6 -44 -4 -47 12 -3 19 -34 23 -128
16z"/>
<path d="M88 93 c-10 -2 -18 -11 -18 -19 0 -8 -10 -14 -22 -14 -49 0 -50 -17
-3 -24 54 -9 175 2 175 15 0 5 -7 9 -15 9 -8 0 -15 6 -15 14 0 21 -55 32 -102
19z"/>
<path d="M470 45 c0 -8 7 -15 15 -15 8 0 15 7 15 15 0 8 -7 15 -15 15 -8 0
-15 -7 -15 -15z"/>
</g>
</svg>
